<svg width="27" height="27" viewBox="0 0 27 27" fill="none" xmlns="http://www.w3.org/2000/svg">
<path fill-rule="evenodd" clip-rule="evenodd" d="M13.9813 27C21.161 27 26.9813 20.9558 26.9813 13.5C26.9813 6.04416 21.161 0 13.9813 0C6.80162 0 0.981323 6.04416 0.981323 13.5C0.981323 20.9558 6.80162 27 13.9813 27Z" fill="#F0F0F5"/>
<path fill-rule="evenodd" clip-rule="evenodd" d="M13.7739 19.125C14.2529 19.125 14.6412 18.7367 14.6412 18.2577V14.3182H18.3763C18.8281 14.3182 19.1945 13.9519 19.1945 13.5C19.1945 13.0481 18.8281 12.6818 18.3763 12.6818H14.6412V8.74229C14.6412 8.2633 14.2529 7.875 13.7739 7.875C13.2949 7.875 12.9066 8.2633 12.9066 8.74229V12.6818H9.17151C8.71965 12.6818 8.35333 13.0481 8.35333 13.5C8.35333 13.9519 8.71964 14.3182 9.17151 14.3182H12.9066V18.2577C12.9066 18.7367 13.2949 19.125 13.7739 19.125Z" fill="black"/>
</svg>